<svg width="150" height="150" viewBox="0 0 150 150" fill="none" xmlns="http://www.w3.org/2000/svg">
<path d="M81.255 128V23H34.8005C27.4627 23 21.204 24.1308 16.0244 26.3923C10.8448 28.5462 6.90614 31.8308 4.20842 36.2462C1.40281 40.6615 0 46.2077 0 52.8846C0 57.4077 0.755359 61.2846 2.26608 64.5154C3.66889 67.7462 5.66519 70.4923 8.25499 72.7538C10.8448 74.9077 13.9202 76.5769 17.4812 77.7615C20.9342 78.9462 24.711 79.7 28.8115 80.0231L29.2971 79.2154C23.578 79.4308 18.6682 80.1308 14.5676 81.3154C10.4671 82.5 7.28382 84.6538 5.01774 87.7769C2.75166 90.9 1.61862 95.5846 1.61862 101.831V128H14.5676V101.831C14.5676 97.5231 15.323 94.1846 16.8337 91.8154C18.2365 89.3385 20.6645 87.6154 24.1175 86.6462C27.4627 85.5692 32.1027 85.0308 38.0377 85.0308H68.306V128H81.255ZM68.306 72.9154H34.8005C27.4627 72.9154 22.0133 71.0846 18.4523 67.4231C14.7834 63.6538 12.949 58.8077 12.949 52.8846C12.949 47.1769 14.7834 42.8154 18.4523 39.8C22.0133 36.6769 27.4627 35.1154 34.8005 35.1154H68.306V72.9154Z" fill="#011140"/>
<path d="M68.745 128V23H115.2C122.537 23 128.796 24.1308 133.976 26.3923C139.155 28.5462 143.094 31.8308 145.792 36.2462C148.597 40.6615 150 46.2077 150 52.8846C150 57.4077 149.245 61.2846 147.734 64.5154C146.331 67.7462 144.335 70.4923 141.745 72.7538C139.155 74.9077 136.08 76.5769 132.519 77.7615C129.066 78.9462 125.289 79.7 121.188 80.0231L120.703 79.2154C126.422 79.4308 131.332 80.1308 135.432 81.3154C139.533 82.5 142.716 84.6538 144.982 87.7769C147.248 90.9 148.381 95.5846 148.381 101.831V128H135.432V101.831C135.432 97.5231 134.677 94.1846 133.166 91.8154C131.763 89.3385 129.336 87.6154 125.882 86.6462C122.537 85.5692 117.897 85.0308 111.962 85.0308H81.694V128H68.745ZM81.694 72.9154H115.2C122.537 72.9154 127.987 71.0846 131.548 67.4231C135.217 63.6538 137.051 58.8077 137.051 52.8846C137.051 47.1769 135.217 42.8154 131.548 39.8C127.987 36.6769 122.537 35.1154 115.2 35.1154H81.694V72.9154Z" fill="#011140"/>
</svg>
